<svg width="1037" height="1024" viewBox="0 0 1037 1024" fill="none" xmlns="http://www.w3.org/2000/svg">
<g clip-path="url(#clip0)">
<path opacity="0.7" d="M697.417 115.245C689.556 111.714 679.981 112.146 670.88 112.189C597.537 112.555 530.222 82.4296 476.895 41.7387C454.308 24.508 424.754 4.09291 396.243 17.014C380.933 23.9599 372.225 38.4408 361.472 50.371C338.965 75.3864 303.406 91.2309 268.429 91.8106C228.634 92.4748 186.657 75.3855 151.3 93.9014C129.538 105.308 117.776 127.042 108.147 147.477C93.1395 179.353 79.7526 211.671 67.9864 244.43C60.1011 266.389 52.8851 289.429 57.119 311.349C60.844 330.65 73.0962 347.204 85.0963 363.215C95.5889 377.202 106.44 391.516 122.329 400.782C132.702 406.829 144.97 410.554 154.118 417.921C175.605 435.225 173.306 465.629 173.397 492.186C173.697 554.827 196.502 615.718 237.784 664.11C301.115 738.339 402.938 780.268 470.833 851.248C500.03 881.765 522.728 917.44 556.785 943.777C576.121 958.574 597.894 969.88 621.12 977.186C666.669 991.68 719.707 991.748 766.921 974.623C814.136 957.497 854.663 922.825 872.494 880.904C891.579 836.028 884.281 787.939 890.314 741.17C896.551 692.872 917.099 645.802 924.771 597.558C930.935 558.532 928.283 518.621 917.011 480.753C905.739 442.886 886.132 408.022 859.628 378.721C823.215 338.462 755.125 306.185 736.703 255.292C723.666 219.006 740.467 134.591 697.417 115.245Z" fill="url(#paint0_linear)"/>
</g>
<defs>
<linearGradient id="paint0_linear" x1="902.289" y1="720.404" x2="122.651" y2="129.171" gradientUnits="userSpaceOnUse">
<stop stop-color="#6200EE"/>
<stop offset="1" stop-color="#03DAC6"/>
</linearGradient>
<clipPath id="clip0">
<rect width="1057.7" height="784.98" fill="white" transform="translate(757.883 -101.182) rotate(74.7003)"/>
</clipPath>
</defs>
</svg>
