<?xml version="1.0" standalone="no"?>
<svg viewBox="0 0 200 200" xmlns="http://www.w3.org/2000/svg">
  <path fill="#03DAC6" d="M28,-50.3C37,-43.4,45.5,-37.3,41.4,-29C37.3,-20.8,20.6,-10.4,20.6,0C20.7,10.5,37.6,20.9,43.9,33.1C50.3,45.3,46.3,59.2,37.2,58C28.1,56.9,14.1,40.6,3.3,34.9C-7.5,29.2,-14.9,34,-24.8,35.6C-34.8,37.3,-47.1,35.8,-55.8,29.4C-64.5,22.9,-69.5,11.4,-71.3,-1.1C-73.2,-13.6,-71.8,-27.1,-64.6,-36.2C-57.5,-45.3,-44.5,-49.9,-32.7,-55.2C-21,-60.6,-10.5,-66.8,-0.5,-65.9C9.5,-65.1,19,-57.3,28,-50.3Z" transform="translate(100 100)" />
</svg>
